<?xml version="1.0" standalone="no"?>
<!DOCTYPE svg PUBLIC "-//W3C//DTD SVG 20010904//EN"
 "http://www.w3.org/TR/2001/REC-SVG-20010904/DTD/svg10.dtd">
<svg version="1.0" xmlns="http://www.w3.org/2000/svg"
 width="260.000000pt" height="260.000000pt" viewBox="0 0 260.000000 260.000000"
 preserveAspectRatio="xMidYMid meet">
<metadata>
Created by potrace 1.11, written by Peter Selinger 2001-2013
</metadata>
<g transform="translate(0.000000,260.000000) scale(0.100000,-0.100000)"
fill="#000000" stroke="none">
<path d="M1036 2249 c-16 -10 -45 -20 -65 -24 -97 -18 -343 -159 -428 -245
-59 -60 -176 -299 -199 -406 -17 -79 -24 -222 -14 -266 5 -21 8 -19 37 22 17
25 63 126 102 225 89 226 104 251 170 297 50 35 177 91 232 102 13 3 39 9 57
15 18 5 35 10 37 10 3 1 6 1 8 2 3 1 20 3 140 19 88 11 284 9 367 -4 93 -14
160 -52 260 -146 36 -34 77 -69 91 -77 28 -17 29 -21 75 -223 41 -186 37 -325
-13 -398 -10 -15 -23 -38 -29 -52 -31 -71 -123 -137 -229 -165 -75 -19 -118
-25 -226 -29 l-87 -4 -77 79 -78 78 6 63 c7 84 14 99 41 93 11 -2 39 -6 61 -9
54 -7 115 -29 162 -60 32 -21 47 -24 90 -20 104 9 150 40 198 136 20 39 38 91
40 117 5 54 -15 133 -55 210 -32 65 -152 231 -176 244 -29 16 -178 35 -274 35
-84 0 -121 -4 -206 -22 -81 -17 -224 -102 -322 -192 -198 -180 -322 -320 -362
-408 -29 -66 -51 -138 -46 -152 3 -7 2 -16 -3 -18 -7 -5 -7 -26 2 -116 22
-214 284 -472 577 -569 143 -47 298 -67 395 -50 22 4 60 10 85 14 24 4 47 8
50 10 3 2 36 6 74 10 37 3 84 14 104 24 50 25 187 124 258 186 93 82 100 88
132 136 17 25 37 51 46 58 29 24 18 33 -31 26 -64 -8 -132 -40 -239 -112 -163
-110 -275 -145 -432 -138 -118 5 -131 7 -206 35 -189 72 -331 216 -391 399
-37 114 -16 295 53 453 68 154 99 192 183 223 35 13 91 33 124 45 33 12 93 24
133 27 68 6 76 4 147 -31 77 -38 101 -62 150 -151 15 -27 34 -59 41 -70 19
-26 18 -70 -3 -123 -16 -42 -18 -44 -51 -38 -41 6 -64 25 -108 91 -43 66 -65
77 -149 81 -59 3 -78 -1 -120 -22 -68 -34 -86 -55 -140 -159 -46 -90 -46 -90
-41 -170 13 -209 75 -268 391 -374 162 -55 234 -59 348 -20 203 68 385 211
489 385 127 212 123 302 -25 564 -146 256 -246 362 -426 451 -78 38 -185 73
-256 84 -22 3 -47 7 -55 10 -23 7 -165 17 -270 19 -75 2 -102 -1 -124 -15z"/>
</g>
</svg>
